<svg xmlns="http://www.w3.org/2000/svg" viewBox="0 0 151.88 28.13"><defs><style>.cls-1{fill:#231f20;}</style></defs><g id="Layer_2" data-name="Layer 2"><g id="Layer_1-2" data-name="Layer 1"><path class="cls-1" d="M6.56,9.38H0L3.75,5.62H6.56V3.75L10.31,0V5.62h6.57L13.12,9.38H10.31V22.5L6.56,26.25Z"/><path class="cls-1" d="M15.94,9.38V5.62h15V9.38Zm0,5.62V11.25h15V15Zm0,5.62V16.88h15v3.74Z"/><path class="cls-1" d="M36.56,15l5.63-5.62H36.56V20.62H32.81v-15h15V9.38L42.19,15l7.5,7.5v5.62Z"/><path class="cls-1" d="M49.69,5.62h15v15H60.94V9.38h-7.5V15l3.75-3.75L60,14.06,49.69,24.38Z"/><path class="cls-1" d="M66.56,20.62v-15h3.75v5.63h7.5V5.62h3.75v15H77.81V15h-7.5v5.62Z"/><path class="cls-1" d="M83.44,9.38V5.62h15V9.38Zm0,5.62V11.25h15V15Zm0,5.62V16.88h15v3.74Z"/><path class="cls-1" d="M104.06,15l5.63-5.62h-5.63V20.62h-3.75v-15h15V9.38L109.69,15l7.5,7.5v5.62Z"/><path class="cls-1" d="M122.81,20.62V9.38h-5.62V5.62h15V9.38h-5.63V20.62Z"/><path class="cls-1" d="M131.25,20.62,142.5,9.38h-8.44V5.62h17.82L140.62,16.88h8.44v3.74Z"/></g></g></svg>